:SAMPLES-PER-SECOND 30
:FULLY-SPECIFIED
:DEGREES
261
root  78.1573 38.1312 -0.739229 -68.8416 -84.958 71.2272
RightUpLeg  7.90182 -11.4396 -11.2175
RightLeg  8.72511 8.44297 0.406285
RightFoot  -21.5894 0.329683 5.29655
RightToes  -9.31324e-010 0 -3.6325e-017
Spine  7.04483 2.11087 8.16908
Spine1  4.36293 4.53023 -9.151
HEad  -6.23549 -38.723 -4.32695
LeftShoulder1  -0.400925 4.56852 -31.5177
LeftArm  1.2062 19.421 -35.4115
LeftForeArm  23.3754 -21.446 -3.92859
LeftHand  -0.0178633 4.95928 -3.50394
RightShoulder  -0.734708 -5.53367 29.5279
RightArm  23.1182 4.78297 47.2535
RightForeArm  0.776987 18.1077 5.76291
RightHand  -0.343558 7.8379 -3.38279
LeftUpLeg  -22.1507 5.93939 -3.58754
LeftLeg  16.5127 2.41546 1.06089
LeftFoot  -1.86997 0.12759 -1.44397
LeftToes  8.61288e-010 -5.99147e-011 2.1039e-011
262
root  77.3036 37.9645 -0.27798 -71.0937 -84.3332 73.2274
RightUpLeg  9.17293 -10.3584 -12.4959
RightLeg  9.43938 7.65617 -0.193567
RightFoot  -22.2886 0.496982 6.76587
RightToes  -9.31324e-010 0 -3.6325e-017
Spine  7.07633 1.99235 6.75642
Spine1  4.15367 4.41007 -9.51796
HEad  -5.19004 -39.1185 -4.9383
LeftShoulder1  -0.443732 4.67082 -31.8849
LeftArm  0.891387 19.325 -34.5835
LeftForeArm  23.5481 -19.5259 -4.43027
LeftHand  -0.072489 6.43947 -3.61468
RightShoulder  -0.708829 -5.46396 29.4801
RightArm  25.221 4.66908 46.8572
RightForeArm  -0.237757 20.6598 5.16791
RightHand  -0.374204 8.24195 -3.55084
LeftUpLeg  -21.791 6.48819 -5.09706
LeftLeg  18.8396 1.75167 1.00514
LeftFoot  -1.26024 -0.126162 1.56554
LeftToes  8.61288e-010 -5.99147e-011 2.1039e-011
263
root  76.4538 37.7361 0.168715 -74.6461 -83.4576 76.2032
RightUpLeg  9.03297 -6.27995 -13.4778
RightLeg  13.5861 3.87385 -0.379352
RightFoot  -23.0984 0.628138 7.59218
RightToes  -9.31324e-010 0 -3.6325e-017
Spine  7.45741 2.10013 4.61071
Spine1  4.39161 4.34439 -9.1708
HEad  -4.04562 -39.7516 -4.60239
LeftShoulder1  -0.420238 4.59169 -32.4622
LeftArm  -0.59649 18.2765 -34.042
LeftForeArm  25.2645 -16.7543 -5.32494
LeftHand  -0.0478038 5.82084 -3.3895
RightShoulder  -0.743766 -5.56433 29.4314
RightArm  25.9064 4.72526 46.5994
RightForeArm  0.389107 22.6765 4.91464
RightHand  -0.500213 8.14099 -4.64287
LeftUpLeg  -21.4428 5.79455 -6.5283
LeftLeg  22.2114 2.67861 1.53523
LeftFoot  -3.37549 -0.149466 2.43908
LeftToes  8.61288e-010 -5.99147e-011 2.1039e-011
264
root  75.6168 37.5986 0.633256 -75.8781 -82.3582 76.5841
RightUpLeg  8.10639 -1.10998 -14.6945
RightLeg  20.1445 -0.264956 -0.151258
RightFoot  -22.7746 0.998857 11.5282
RightToes  -9.31324e-010 0 -3.6325e-017
Spine  7.34843 1.93443 3.32287
Spine1  5.81743 4.3692 -10.3957
HEad  -4.34823 -39.573 -4.34283
LeftShoulder1  -0.344089 4.40424 -32.0652
LeftArm  -5.06576 15.8658 -34.7505
LeftForeArm  29.6049 -11.8065 -6.49768
LeftHand  -0.0265336 5.28122 -3.35832
RightShoulder  -0.777443 -5.64525 29.6585
RightArm  25.0461 4.96212 47.0332
RightForeArm  2.77418 22.9938 4.82019
RightHand  -0.267043 7.76128 -2.73585
LeftUpLeg  -19.9707 5.53731 -8.2376
LeftLeg  24.0473 2.94197 1.77777
LeftFoot  -5.38607 -0.137083 3.26043
LeftToes  8.61288e-010 -5.99147e-011 2.1039e-011
265
root  74.8457 37.5372 1.08172 -81.2415 -81.7474 81.2221
RightUpLeg  5.30796 0.907291 -16.0911
RightLeg  29.1117 -0.0847269 -0.300994
RightFoot  -20.2502 1.19504 17.5703
RightToes  -9.31324e-010 0 -3.6325e-017
Spine  8.00656 2.12322 1.5885
Spine1  6.13129 4.30175 -10.5725
HEad  -3.99488 -38.9964 -4.49869
LeftShoulder1  -0.414697 4.57688 -32.5101
LeftArm  -6.79423 13.1158 -35.5095
LeftForeArm  31.8101 -7.50778 -7.06756
LeftHand  -0.123201 8.55073 -2.7359
RightShoulder  -0.751565 -5.58785 29.4061
RightArm  25.1337 5.16656 47.6128
RightForeArm  1.56309 21.451 4.96918
RightHand  -0.323627 7.28755 -3.3118
LeftUpLeg  -18.3151 5.97251 -9.53093
LeftLeg  25.1033 3.30035 2.03898
LeftFoot  -7.29882 -0.0885341 3.71854
LeftToes  8.61288e-010 -5.99147e-011 2.1039e-011
